<svg xmlns="http://www.w3.org/2000/svg" xmlns:xlink="http://www.w3.org/1999/xlink" width="570.321" height="531.755" viewBox="0 0 570.321 531.755">
  <defs>
    <linearGradient id="linear-gradient" x1="0.5" x2="0.5" y2="1" gradientUnits="objectBoundingBox">
      <stop offset="0" stop-color="#fff"/>
      <stop offset="1" stop-color="#fff" stop-opacity="0"/>
    </linearGradient>
    <linearGradient id="linear-gradient-3" x1="0.5" y1="1" x2="0.5" gradientUnits="objectBoundingBox">
      <stop offset="0" stop-color="#6849fc" stop-opacity="0"/>
      <stop offset="1" stop-color="#9580ff"/>
    </linearGradient>
    <linearGradient id="linear-gradient-4" x1="0.5" y1="0.904" x2="0.5" y2="0.057" gradientUnits="objectBoundingBox">
      <stop offset="0" stop-color="#fff" stop-opacity="0"/>
      <stop offset="1" stop-color="#9580ff"/>
    </linearGradient>
    <linearGradient id="linear-gradient-5" x1="0.829" y1="0.823" x2="0.223" y2="0.132" gradientUnits="objectBoundingBox">
      <stop offset="0" stop-color="#6849fc"/>
      <stop offset="1" stop-color="#9580ff"/>
    </linearGradient>
    <linearGradient id="linear-gradient-6" x1="0.5" x2="0.187" y2="0.307" gradientUnits="objectBoundingBox">
      <stop offset="0" stop-color="#5a2d68"/>
      <stop offset="1" stop-color="#22043d"/>
    </linearGradient>
    <linearGradient id="linear-gradient-7" x2="0.5" y2="1" xlink:href="#linear-gradient-6"/>
    <linearGradient id="linear-gradient-8" x1="0.075" y1="0.045" x2="0.56" y2="0.5" xlink:href="#linear-gradient-6"/>
    <linearGradient id="linear-gradient-9" y1="0.5" x2="1" y2="0.5" gradientUnits="objectBoundingBox">
      <stop offset="0.004" stop-color="#042ff8"/>
      <stop offset="1" stop-color="#536dfe"/>
    </linearGradient>
    <linearGradient id="linear-gradient-11" y1="0.5" x2="1" y2="0.5" gradientUnits="objectBoundingBox">
      <stop offset="0.479" stop-color="#eef0ff"/>
      <stop offset="0.996" stop-color="#cbd3ff"/>
    </linearGradient>
    <linearGradient id="linear-gradient-12" y1="0.5" x2="1" y2="0.5" gradientUnits="objectBoundingBox">
      <stop offset="0" stop-color="#536dfe"/>
      <stop offset="0.996" stop-color="#a9b6ff"/>
    </linearGradient>
  </defs>
  <g id="easy_share" data-name="easy share" transform="translate(-974.679 -2214)">
    <path id="Path_409" data-name="Path 409" d="M1916.043,1354.083l0,367.121H2201.2V1491.089Z" transform="translate(-941.362 1024.552)" fill="url(#linear-gradient)"/>
    <path id="Path_410" data-name="Path 410" d="M2442.834,1354.083l0,356.19H2157.676V1487.009Z" transform="translate(-897.836 1024.552)" fill="url(#linear-gradient)"/>
    <path id="Path_253" data-name="Path 253" d="M1916.043,1354.083l0,367.121H2201.2V1491.089Z" transform="translate(-941.362 1024.552)" opacity="0.1" fill="url(#linear-gradient-3)"/>
    <path id="Path_255" data-name="Path 255" d="M2442.834,1354.083l0,367.121H2157.676V1491.089Z" transform="translate(-897.836 1024.552)" opacity="0.1" fill="url(#linear-gradient-4)"/>
    <path id="Path_261" data-name="Path 261" d="M2201.2,1543.848l285.161-164.636L2201.2,1214.578l-285.159,164.634Z" transform="translate(-941.362 999.422)" fill="#dde2ff"/>
    <g id="Group_248" data-name="Group 248" transform="translate(1134.87 2453.825)" opacity="0.5">
      <path id="Path_263" data-name="Path 263" d="M2082.314,1417.8l-30.534,16.887,28.027,16.547,30.533-17.252Z" transform="translate(-2051.781 -1417.797)" fill="#042ff8" opacity="0"/>
      <path id="Path_264" data-name="Path 264" d="M2082.211,1417.8l-29.858,16.514,28.02,16.542,29.865-16.875Z" transform="translate(-2051.677 -1417.797)" fill="#042ff8" opacity="0.024"/>
      <path id="Path_265" data-name="Path 265" d="M2082.108,1417.8l-29.182,16.141,28.014,16.539,29.2-16.5Z" transform="translate(-2051.574 -1417.797)" fill="#042ff8" opacity="0.049"/>
      <path id="Path_266" data-name="Path 266" d="M2082,1417.8l-28.506,15.768,28.007,16.535,28.526-16.121Z" transform="translate(-2051.471 -1417.797)" fill="#042ff8" opacity="0.073"/>
      <path id="Path_267" data-name="Path 267" d="M2081.9,1417.8l-27.83,15.395,28,16.531,27.857-15.744Z" transform="translate(-2051.368 -1417.797)" fill="#042ff8" opacity="0.098"/>
      <path id="Path_268" data-name="Path 268" d="M2081.8,1417.8l-27.155,15.021,27.993,16.527,27.188-15.367Z" transform="translate(-2051.265 -1417.797)" fill="#042ff8" opacity="0.122"/>
      <path id="Path_269" data-name="Path 269" d="M2081.7,1417.8l-26.479,14.648,27.987,16.523,26.519-14.99Z" transform="translate(-2051.162 -1417.797)" fill="#042ff8" opacity="0.146"/>
      <path id="Path_270" data-name="Path 270" d="M2081.592,1417.8l-25.8,14.275,27.98,16.519,25.85-14.612Z" transform="translate(-2051.059 -1417.797)" fill="#042ff8" opacity="0.171"/>
      <path id="Path_271" data-name="Path 271" d="M2081.489,1417.8l-25.127,13.9,27.973,16.515,25.181-14.235Z" transform="translate(-2050.955 -1417.797)" fill="#042ff8" opacity="0.195"/>
      <path id="Path_272" data-name="Path 272" d="M2081.386,1417.8l-24.451,13.529,27.966,16.511,24.512-13.858Z" transform="translate(-2050.852 -1417.797)" fill="#042ff8" opacity="0.22"/>
      <path id="Path_273" data-name="Path 273" d="M2081.283,1417.8l-23.776,13.156,27.96,16.507,23.843-13.481Z" transform="translate(-2050.749 -1417.797)" fill="#042ff8" opacity="0.244"/>
      <path id="Path_274" data-name="Path 274" d="M2081.18,1417.8l-23.1,12.783,27.953,16.5,23.174-13.1Z" transform="translate(-2050.646 -1417.797)" fill="#042ff8" opacity="0.268"/>
      <path id="Path_275" data-name="Path 275" d="M2081.076,1417.8l-22.424,12.41,27.946,16.5,22.505-12.727Z" transform="translate(-2050.543 -1417.797)" fill="#042ff8" opacity="0.293"/>
      <path id="Path_276" data-name="Path 276" d="M2080.973,1417.8l-21.748,12.036,27.94,16.495,21.836-12.35Z" transform="translate(-2050.44 -1417.797)" fill="#042ff8" opacity="0.317"/>
      <path id="Path_277" data-name="Path 277" d="M2080.87,1417.8,2059.8,1429.46l27.933,16.491,21.167-11.973Z" transform="translate(-2050.336 -1417.797)" fill="#042ff8" opacity="0.341"/>
      <path id="Path_278" data-name="Path 278" d="M2080.767,1417.8l-20.4,11.29,27.926,16.487,20.5-11.6Z" transform="translate(-2050.233 -1417.797)" fill="#042ff8" opacity="0.366"/>
      <path id="Path_279" data-name="Path 279" d="M2080.664,1417.8l-19.721,10.917,27.919,16.483,19.829-11.219Z" transform="translate(-2050.13 -1417.797)" fill="#042ff8" opacity="0.39"/>
      <path id="Path_280" data-name="Path 280" d="M2080.561,1417.8l-19.045,10.544,27.913,16.479,19.16-10.842Z" transform="translate(-2050.027 -1417.797)" fill="#042ff8" opacity="0.415"/>
      <path id="Path_281" data-name="Path 281" d="M2080.458,1417.8l-18.369,10.171,27.906,16.475,18.491-10.464Z" transform="translate(-2049.924 -1417.797)" fill="#042ff8" opacity="0.439"/>
      <path id="Path_282" data-name="Path 282" d="M2080.354,1417.8l-17.694,9.8,27.9,16.471,17.822-10.087Z" transform="translate(-2049.821 -1417.797)" fill="#042ff8" opacity="0.463"/>
      <path id="Path_283" data-name="Path 283" d="M2080.251,1417.8l-17.018,9.425,27.892,16.467,17.153-9.71Z" transform="translate(-2049.718 -1417.797)" fill="#042ff8" opacity="0.488"/>
      <path id="Path_284" data-name="Path 284" d="M2080.148,1417.8l-16.342,9.052,27.886,16.463,16.483-9.333Z" transform="translate(-2049.615 -1417.797)" fill="#042ff8" opacity="0.512"/>
      <path id="Path_285" data-name="Path 285" d="M2080.045,1417.8l-15.666,8.678,27.879,16.459,15.814-8.956Z" transform="translate(-2049.511 -1417.797)" fill="#042ff8" opacity="0.537"/>
      <path id="Path_286" data-name="Path 286" d="M2079.942,1417.8l-14.99,8.305,27.872,16.455,15.146-8.579Z" transform="translate(-2049.408 -1417.797)" fill="#042ff8" opacity="0.561"/>
      <path id="Path_287" data-name="Path 287" d="M2079.839,1417.8l-14.315,7.932,27.865,16.451,14.476-8.2Z" transform="translate(-2049.305 -1417.797)" fill="#042ff8" opacity="0.585"/>
      <path id="Path_288" data-name="Path 288" d="M2079.736,1417.8l-13.639,7.559,27.859,16.447,13.807-7.825Z" transform="translate(-2049.202 -1417.797)" fill="#042ff8" opacity="0.61"/>
      <path id="Path_289" data-name="Path 289" d="M2079.632,1417.8l-12.963,7.186,27.852,16.443,13.138-7.448Z" transform="translate(-2049.099 -1417.797)" fill="#042ff8" opacity="0.634"/>
      <path id="Path_290" data-name="Path 290" d="M2079.529,1417.8l-12.287,6.813,27.845,16.439,12.469-7.071Z" transform="translate(-2048.996 -1417.797)" fill="#042ff8" opacity="0.659"/>
      <path id="Path_291" data-name="Path 291" d="M2079.426,1417.8l-11.612,6.44,27.838,16.435,11.8-6.693Z" transform="translate(-2048.892 -1417.797)" fill="#042ff8" opacity="0.683"/>
      <path id="Path_292" data-name="Path 292" d="M2079.323,1417.8l-10.936,6.067,27.832,16.431,11.131-6.316Z" transform="translate(-2048.79 -1417.797)" fill="#042ff8" opacity="0.707"/>
      <path id="Path_293" data-name="Path 293" d="M2079.22,1417.8l-10.26,5.693,27.825,16.427,10.462-5.939Z" transform="translate(-2048.686 -1417.797)" fill="#042ff8" opacity="0.732"/>
      <path id="Path_294" data-name="Path 294" d="M2079.117,1417.8l-9.584,5.32,27.818,16.423,9.793-5.562Z" transform="translate(-2048.583 -1417.797)" fill="#042ff8" opacity="0.756"/>
      <path id="Path_295" data-name="Path 295" d="M2079.013,1417.8l-8.908,4.947,27.812,16.419,9.124-5.185Z" transform="translate(-2048.48 -1417.797)" fill="#042ff8" opacity="0.78"/>
      <path id="Path_296" data-name="Path 296" d="M2078.91,1417.8l-8.232,4.574,27.8,16.415,8.455-4.808Z" transform="translate(-2048.377 -1417.797)" fill="#042ff8" opacity="0.805"/>
      <path id="Path_297" data-name="Path 297" d="M2078.807,1417.8l-7.557,4.2,27.8,16.411,7.786-4.431Z" transform="translate(-2048.273 -1417.797)" fill="#042ff8" opacity="0.829"/>
      <path id="Path_298" data-name="Path 298" d="M2078.7,1417.8l-6.881,3.828,27.791,16.408,7.117-4.054Z" transform="translate(-2048.17 -1417.797)" fill="#042ff8" opacity="0.854"/>
      <path id="Path_299" data-name="Path 299" d="M2078.6,1417.8l-6.205,3.455,27.785,16.4,6.448-3.677Z" transform="translate(-2048.067 -1417.797)" fill="#042ff8" opacity="0.878"/>
      <path id="Path_300" data-name="Path 300" d="M2078.5,1417.8l-5.529,3.082,27.778,16.4,5.779-3.3Z" transform="translate(-2047.964 -1417.797)" fill="#042ff8" opacity="0.902"/>
      <path id="Path_301" data-name="Path 301" d="M2078.395,1417.8l-4.854,2.708,27.771,16.4,5.11-2.923Z" transform="translate(-2047.861 -1417.797)" fill="#042ff8" opacity="0.927"/>
      <path id="Path_302" data-name="Path 302" d="M2078.292,1417.8l-4.178,2.335,27.764,16.391,4.441-2.545Z" transform="translate(-2047.758 -1417.797)" fill="#042ff8" opacity="0.951"/>
      <path id="Path_303" data-name="Path 303" d="M2078.188,1417.8l-3.5,1.962,27.758,16.388,3.772-2.168Z" transform="translate(-2047.655 -1417.797)" fill="#042ff8" opacity="0.976"/>
      <path id="Path_304" data-name="Path 304" d="M2078.085,1417.8l-2.826,1.589,27.75,16.384,3.1-1.791Z" transform="translate(-2047.552 -1417.797)" fill="#042ff8"/>
    </g>
    <g id="Group_249" data-name="Group 249" transform="translate(1352.942 2298.111)">
      <path id="Path_305" data-name="Path 305" d="M2236.568,1301.811v50.471l32.624,18.835v-50.471Z" transform="translate(-2236.567 -1282.976)" fill="#dde2ff"/>
      <path id="Path_306" data-name="Path 306" d="M2296.835,1301.811v50.471l-32.624,18.835v-50.471Z" transform="translate(-2231.588 -1282.976)" fill="#bac5ff"/>
      <path id="Path_307" data-name="Path 307" d="M2269.191,1323.521l32.624-18.835-32.624-18.835-32.624,18.835Z" transform="translate(-2236.567 -1285.85)" fill="#eef0ff"/>
    </g>
    <path id="Path_308" data-name="Path 308" d="M2362.187,1402.367l-205.673-118.745a15.843,15.843,0,0,0-14.281,0l-107.915,62.3a8.159,8.159,0,0,0-.929.628,6.02,6.02,0,0,0-2.183,2.433l-.614,1.262a10.151,10.151,0,0,0,4.057,13.228l205.34,118.51a15.852,15.852,0,0,0,14.281,0l105.1-60.492a11.5,11.5,0,0,0,5.764-9.969v-3.922l-.16-.094C2365.524,1405.7,2364.6,1403.761,2362.187,1402.367Z" transform="translate(-920.912 1011.553)" fill="#042ff8" opacity="0.2"/>
    <g id="Group_251" data-name="Group 251" transform="translate(1108.659 2246.26)">
      <g id="Group_250" data-name="Group 250" transform="translate(0 0)">
        <path id="Path_309" data-name="Path 309" d="M2365.132,1371.479v-3.92l-209.2-122.881c-3.927-2.267-8.549-3.651-12.475-1.384l-109.831,63.054a6.031,6.031,0,0,0-2.421,2.594l-.614,1.261a10.152,10.152,0,0,0,4.057,13.228l205.34,118.509a15.844,15.844,0,0,0,14.281,0l105.1-60.491A11.5,11.5,0,0,0,2365.132,1371.479Z" transform="translate(-2029.571 -1241.874)" fill="#fff"/>
        <path id="Path_310" data-name="Path 310" d="M2361.912,1370.6c3.927-2.268,3.927-5.979,0-8.246l-205.673-118.745a15.836,15.836,0,0,0-14.281,0l-107.915,62.3c-3.927,2.268-3.927,5.978,0,8.245l205.672,118.746a15.843,15.843,0,0,0,14.281,0Z" transform="translate(-2029.296 -1241.913)" fill="#dddffc"/>
        <path id="Path_311" data-name="Path 311" d="M2246.631,1432.913a13.233,13.233,0,0,1-6.4-1.5l-205.672-118.746c-1.4-.81-2.209-1.847-2.209-2.845s.8-2.037,2.209-2.849l107.915-62.3a14.39,14.39,0,0,1,12.808,0l205.673,118.746c1.4.81,2.208,1.847,2.208,2.845s-.8,2.037-2.208,2.849l-107.916,62.3A13.228,13.228,0,0,1,2246.631,1432.913Z" transform="translate(-2029.071 -1241.689)" fill="url(#linear-gradient-5)"/>
      </g>
    </g>
    <path id="Path_312" data-name="Path 312" d="M2162.772,1386.416l-23.408-13.6,119.035-68.368,23.408,13.6Z" transform="translate(-901.135 1015.611)" fill="#02187c" opacity="0.3"/>
    <g id="Group_252" data-name="Group 252" transform="translate(1271.198 2340.007)">
      <path id="Path_313" data-name="Path 313" d="M2188.775,1398.829a.984.984,0,0,1-.5-.135l-6.829-3.968a.987.987,0,1,1,.993-1.706l6.57,3.816a.987.987,0,0,1,.437-.52l6.848-3.934a.988.988,0,0,1,.984,1.713l-6.848,3.933a.992.992,0,0,1-.714.106,1.022,1.022,0,0,1-.09.2A.989.989,0,0,1,2188.775,1398.829Zm-13.659-7.935a.984.984,0,0,1-.495-.135l-6.829-3.968a.987.987,0,1,1,.992-1.706l6.828,3.968a.987.987,0,0,1-.5,1.841Zm28.522-.6a.987.987,0,0,1-.492-1.843l6.848-3.933a.987.987,0,1,1,.983,1.712l-6.848,3.933A.985.985,0,0,1,2203.639,1390.292Zm-31.594-7.307a.987.987,0,0,1-.492-1.843l6.848-3.933a.987.987,0,0,1,.983,1.712l-6.848,3.933A.985.985,0,0,1,2172.044,1382.985Zm45.292-.559a.987.987,0,0,1-.492-1.843l6.848-3.935a.987.987,0,1,1,.983,1.712l-6.848,3.935A.983.983,0,0,1,2217.336,1382.425Zm-31.594-7.307a.988.988,0,0,1-.492-1.845l6.848-3.933a.987.987,0,1,1,.983,1.712l-6.848,3.933A.976.976,0,0,1,2185.742,1375.118Zm45.292-.561a.987.987,0,0,1-.492-1.843l6.848-3.933a.987.987,0,1,1,.983,1.712l-6.848,3.933A.986.986,0,0,1,2231.034,1374.557Zm-31.594-7.307a.988.988,0,0,1-.493-1.843l6.849-3.933a.987.987,0,1,1,.983,1.712l-6.848,3.933A.99.99,0,0,1,2199.439,1367.25Zm45.292-.559a.988.988,0,0,1-.493-1.843l6.849-3.933a.987.987,0,1,1,.983,1.711l-6.848,3.935A.993.993,0,0,1,2244.732,1366.691Zm-31.6-7.307a.987.987,0,0,1-.492-1.843l6.848-3.933a.988.988,0,0,1,.985,1.712l-6.85,3.933A.984.984,0,0,1,2213.136,1359.383Zm45.292-.561a.987.987,0,0,1-.492-1.843l6.848-3.933a.988.988,0,0,1,.984,1.712l-6.849,3.933A.985.985,0,0,1,2258.428,1358.823Zm-31.594-7.307a.987.987,0,0,1-.492-1.843l6.848-3.933a.987.987,0,0,1,.983,1.712l-6.848,3.933A.986.986,0,0,1,2226.834,1351.515Zm45.292-.559a.987.987,0,0,1-.492-1.843l6.848-3.933a.987.987,0,1,1,.983,1.712l-6.848,3.933A.985.985,0,0,1,2272.126,1350.956Zm-31.594-7.307a.987.987,0,0,1-.492-1.843l6.848-3.933a.988.988,0,1,1,.984,1.712l-6.849,3.933A.985.985,0,0,1,2240.532,1343.649Zm45.292-.559a.987.987,0,0,1-.492-1.843l6.848-3.934a.987.987,0,1,1,.983,1.712l-6.848,3.933A.975.975,0,0,1,2285.824,1343.089Zm-31.594-7.307a.987.987,0,0,1-.492-1.843l6.848-3.933a.987.987,0,1,1,.983,1.712l-6.848,3.933A.988.988,0,0,1,2254.229,1335.782Zm45.292-.561a.987.987,0,0,1-.66-1.722l-4.084-2.373a.987.987,0,1,1,.992-1.707l7.017,4.076-2.774,1.594A.99.99,0,0,1,2299.522,1335.221Zm-31.594-7.306a.987.987,0,0,1-.494-1.843l6.85-3.933a.987.987,0,1,1,.983,1.713l-6.848,3.933A.991.991,0,0,1,2267.927,1327.915Zm20.516-.622a.98.98,0,0,1-.495-.133l-6.829-3.968a.987.987,0,1,1,.992-1.708l6.828,3.968a.987.987,0,0,1-.5,1.841Z" transform="translate(-2167.301 -1321.351)" fill="#0323ba"/>
    </g>
    <g id="Group_257" data-name="Group 257" transform="translate(1220.168 2227.375)">
      <g id="Group_253" data-name="Group 253" transform="translate(110.241 37.738)">
        <path id="Path_314" data-name="Path 314" d="M2220.945,1306.691a3.615,3.615,0,0,1-1.457-6.853l4.38-1.06,18.888-10.435a11.753,11.753,0,0,0,6.459-9.021l2.406-18.291a3.615,3.615,0,0,1,7.168.943l-2.407,18.29a18.964,18.964,0,0,1-10.424,14.561l-19.691,8.991-3.577,2.5A3.594,3.594,0,0,1,2220.945,1306.691Z" transform="translate(-2217.474 -1257.888)" fill="#98a7fe"/>
      </g>
      <path id="Path_315" data-name="Path 315" d="M2261.346,1238.163a30.4,30.4,0,0,0-1.575-3.6,21.92,21.92,0,0,0-3.426-5.517c-3.762-4.008-11.173-1.2-11.8,4.24-.269,2.308,1.43,5.069,1.9,7.31a88.158,88.158,0,0,1,.979,9.51,6.03,6.03,0,0,0,.952,3.15c.324.422.752.759,1.066,1.19a5.758,5.758,0,0,1,.773,1.889q.738,2.682,1.478,5.364c.625,2.269,1.324,4.665,3.06,6.255s4.864,1.9,6.255,0a5.849,5.849,0,0,0,.82-1.957,38.622,38.622,0,0,0,1.043-14.9C2262.355,1247.008,2262.655,1242.033,2261.346,1238.163Z" transform="translate(-2102.363 -1225.686)" fill="url(#linear-gradient-6)"/>
      <path id="Path_316" data-name="Path 316" d="M2262.378,1252.893l12.71,9.374c2.985,2.2,3.4,5.878,4.067,9.525,2.255,12.259,2.094,35.984-3.339,47.887-1.438,3.152-7.169,5.351-10.733,6.817l-24.848-14.3s5.43-8.256,6.878-15.87c.995-5.229-1.139-11.425-2.094-16.279h0a8.441,8.441,0,0,1-.813-7.874l2.673-6.6.823-6.412A9.257,9.257,0,0,1,2262.378,1252.893Z" transform="translate(-2103.133 -1221.378)" fill="#536dfe"/>
      <path id="Path_317" data-name="Path 317" d="M2254.71,1277.5s-5.942-8.924,0-24.453c.8-2.094,3.971-8.039,3.971-8.039l8.84,1.14-1.531,11.876C2265.676,1260.466,2262.009,1277.125,2254.71,1277.5Z" transform="translate(-2101.001 -1222.47)" fill="#98a7fe"/>
      <rect id="Rectangle_91" data-name="Rectangle 91" width="8.867" height="1.694" rx="0.669" transform="translate(119.142 81.354) rotate(-159.438)" fill="#98a7fe"/>
      <path id="Path_318" data-name="Path 318" d="M2266.214,1254.856l-.755-8.949-6.963-.9s-3.17,5.945-3.971,8.039c-.313.818-1.177,3.491-1.427,4.272l.035.006a12.683,12.683,0,0,0,5.583-.366l7.5-2.1Z" transform="translate(-2100.816 -1222.47)" fill="#042ff8" opacity="0.3"/>
      <path id="Path_319" data-name="Path 319" d="M2267.22,1257.346l-8.7-1.122c-4.047-.522-6.816-.372-8.572-2.558-1.455-1.813-2.214-5.689-2.429-8.721-.055-.78.661-3.054.675-3.872.022-1.261-.612-2.566-.441-3.895h0a6.865,6.865,0,0,1,7.688-5.931l14.9,1.921Z" transform="translate(-2101.822 -1224.96)" fill="#98a7fe"/>
      <path id="Path_320" data-name="Path 320" d="M2240.235,1308.308l8.541,4.913c-.384-3.109-1.147-6.208-.624-9.278.587-3.456,2.75-6.484,3.37-9.933a11.558,11.558,0,0,0-.614-6.226,12.731,12.731,0,0,1-.995-2.824,2.511,2.511,0,0,1,1.076-2.6c.575-.3,1.393-.352,1.618-.958.219-.591-.339-1.17-.864-1.518-1.3-.865-2.776-1.466-4.018-2.416a17.659,17.659,0,0,1-3.512-4.047l-.524-.745a8.414,8.414,0,0,0,1.329,3.485c.956,4.854,3.089,11.05,2.094,16.279C2245.665,1300.052,2240.235,1308.308,2240.235,1308.308Z" transform="translate(-2103.133 -1217.487)" fill="#042ff8" opacity="0.3"/>
      <g id="Group_254" data-name="Group 254" transform="translate(0 76.235)">
        <path id="Path_321" data-name="Path 321" d="M2147.925,1374.075l-23.865-13.864,121.357-69.7,23.864,13.864Z" transform="translate(-2124.06 -1290.509)" fill="#fff"/>
        <path id="Path_322" data-name="Path 322" d="M2265.648,1302.257v4.574l-121.426,70.208v-5.08Z" transform="translate(-2120.427 -1288.393)" fill="#fa33a9"/>
        <path id="Path_323" data-name="Path 323" d="M2124.06,1349.572v4.574l23.795,14.371v-5.08Z" transform="translate(-2124.06 -1279.87)" fill="#fb4cb3"/>
      </g>
      <rect id="Rectangle_92" data-name="Rectangle 92" width="8.867" height="1.694" rx="0.669" transform="translate(149.075 96.558) rotate(-159.437)" fill="#98a7fe"/>
      <g id="Group_255" data-name="Group 255" transform="translate(139.543 51.305)">
        <path id="Path_324" data-name="Path 324" d="M2245.46,1320.584a3.614,3.614,0,0,1-1.39-6.69l3.912-1.594,17.169-10.967a11.925,11.925,0,0,0,5.819-11.169l-1.231-16.9a3.615,3.615,0,1,1,7.21-.524l1.231,16.9a19.116,19.116,0,0,1-9.329,17.9l-17.348,9.6-3.734,2.962A3.6,3.6,0,0,1,2245.46,1320.584Z" transform="translate(-2242.304 -1269.385)" fill="#98a7fe"/>
      </g>
      <g id="Group_256" data-name="Group 256" transform="translate(166.066 50.401)">
        <path id="Path_325" data-name="Path 325" d="M2269.533,1289.676a4.52,4.52,0,0,1-3.924-4.153l-.819-12.057a4.518,4.518,0,1,1,9.012-.656l.819,12.056a4.517,4.517,0,0,1-4.177,4.835A4.6,4.6,0,0,1,2269.533,1289.676Z" transform="translate(-2264.778 -1268.619)" fill="#536dfe"/>
      </g>
      <path id="Path_326" data-name="Path 326" d="M2277.2,1254.385a36.372,36.372,0,0,1-2.416-9.541c-.366-5.41,2.057-10.769-2.469-15.136-3.256-3.143-8.236-3.46-12.761-3.505-3.033-.031-10.641-1.468-12.256,2.331a3.563,3.563,0,0,0-.17,1.625,12.355,12.355,0,0,0,2.969,7.8c1.29,1.357,3.111,2.193,4.306,3.631,1.414,1.7.962,4.166,2.2,6.044a27.23,27.23,0,0,0,5.335,6.37c4.669,3.811,3.969,6.559,3.929,12.439-.035,5.223.257,11.187,4.291,14.505a10.46,10.46,0,0,1,1.44,1.247,11.633,11.633,0,0,1,1.274,2.472,7.626,7.626,0,0,0,6.388,4.155,4.677,4.677,0,0,0,3.4-1.068,6,6,0,0,0,1.447-2.725A27.233,27.233,0,0,0,2282.33,1265c-.758-1.487-1.651-2.9-2.4-4.389A64.652,64.652,0,0,1,2277.2,1254.385Z" transform="translate(-2101.894 -1225.911)" fill="url(#linear-gradient-7)"/>
      <path id="Path_327" data-name="Path 327" d="M2247.3,1228.533c1.063-2.5,4.726-2.73,7.97-2.587-2.549.092-4.945.662-5.77,2.606a3.579,3.579,0,0,0-.171,1.625,12.363,12.363,0,0,0,2.97,7.8c1.29,1.356,3.11,2.193,4.306,3.63,1.413,1.7.961,4.166,2.2,6.045a27.262,27.262,0,0,0,5.334,6.37c4.67,3.811,3.969,6.558,3.93,12.439-.035,5.223.256,11.186,4.29,14.505a10.309,10.309,0,0,1,1.44,1.246,11.7,11.7,0,0,1,1.276,2.472,7.646,7.646,0,0,0,5.429,4.047,6,6,0,0,1-1.24.091,7.626,7.626,0,0,1-6.388-4.155,11.633,11.633,0,0,0-1.274-2.472,10.46,10.46,0,0,0-1.44-1.247c-4.034-3.318-4.326-9.282-4.291-14.505.04-5.88.74-8.628-3.929-12.439a27.23,27.23,0,0,1-5.335-6.37c-1.233-1.878-.781-4.344-2.2-6.044-1.2-1.439-3.016-2.274-4.306-3.631a12.355,12.355,0,0,1-2.969-7.8A3.563,3.563,0,0,1,2247.3,1228.533Z" transform="translate(-2101.894 -1225.91)" fill="url(#linear-gradient-8)"/>
    </g>
    <g id="Group_258" data-name="Group 258" transform="translate(1180.437 2325.892)" opacity="0.3">
      <path id="Path_328" data-name="Path 328" d="M2136.056,1310.4a13.357,13.357,0,0,0-10.146-.018l-33.417,15.9c-2.795,1.329-2.8,3.513-.013,4.851l33.443,16.073a13.279,13.279,0,0,0,10.133,0l33.222-15.967c2.786-1.339,2.786-3.531,0-4.87Z" transform="translate(-2090.393 -1309.39)" fill="#02187c"/>
    </g>
    <g id="Group_260" data-name="Group 260" transform="translate(1235.063 2291.861)">
      <g id="Group_259" data-name="Group 259" transform="translate(0 0)">
        <path id="Path_329" data-name="Path 329" d="M2178.263,1321.348a15.718,15.718,0,0,1-1.822-.1.988.988,0,0,1,.229-1.963,12.243,12.243,0,0,0,6.232-.814l.885-.425a.987.987,0,0,1,.855,1.779l-.884.425A12.981,12.981,0,0,1,2178.263,1321.348Zm-9.036-2.911a.969.969,0,0,1-.427-.1l-7.118-3.421a.987.987,0,0,1,.856-1.78l7.118,3.421a.988.988,0,0,1-.428,1.878Zm22.106-1.939a.987.987,0,0,1-.428-1.876l7.119-3.421a.987.987,0,0,1,.856,1.78l-7.119,3.42A.969.969,0,0,1,2191.333,1316.5Zm-36.343-4.9a.982.982,0,0,1-.427-.1l-7.118-3.421a.987.987,0,1,1,.854-1.78l7.118,3.421a.987.987,0,0,1-.427,1.876Zm50.58-1.938a.987.987,0,0,1-.427-1.876l7.118-3.421a.986.986,0,0,1,.854,1.778l-7.118,3.422A.985.985,0,0,1,2205.57,1309.655Zm-64.817-4.9a.984.984,0,0,1-.427-.1l-1-.48c-2.3-1.107-2.646-2.552-2.646-3.315s.346-2.216,2.661-3.317a1,1,0,0,1,1.332.456.97.97,0,0,1-.443,1.308l-.037.018c-.966.459-1.54,1.034-1.54,1.536s.57,1.076,1.526,1.535l1,.48a.987.987,0,0,1-.428,1.876Zm77.873-3.038a.989.989,0,0,1-.977-.853c-.066-.481-.635-1.024-1.523-1.45l-4.279-2.057a.987.987,0,0,1,.855-1.78l4.28,2.057a4.171,4.171,0,0,1,2.625,2.961.988.988,0,0,1-.844,1.113A1.066,1.066,0,0,1,2218.626,1301.713Zm-71.69-5.7a.987.987,0,0,1-.425-1.879l7.133-3.393a.987.987,0,1,1,.847,1.782l-7.131,3.393A.987.987,0,0,1,2146.936,1296.009Zm58.219-1.98a.992.992,0,0,1-.427-.1l-7.118-3.421a.987.987,0,1,1,.854-1.78l7.12,3.421a.988.988,0,0,1-.428,1.878Zm-43.955-4.807a.987.987,0,0,1-.425-1.879l7.133-3.393a.987.987,0,0,1,.849,1.783l-7.133,3.393A.985.985,0,0,1,2161.2,1289.222Zm29.718-2.036a.97.97,0,0,1-.427-.1l-7.118-3.421a.993.993,0,0,0-.469-.225,12.774,12.774,0,0,0-7.134-.69.987.987,0,0,1-.367-1.94,15.243,15.243,0,0,1,2.83-.257,13.077,13.077,0,0,1,5.526,1.108.965.965,0,0,1,.219.144.988.988,0,0,1,.25.081l7.117,3.422a.987.987,0,0,1-.427,1.876Z" transform="translate(-2136.681 -1280.554)" fill="#0323ba"/>
      </g>
    </g>
    <g id="Group_262" data-name="Group 262" transform="translate(1181.093 2264.162)">
      <g id="Group_261" data-name="Group 261" transform="translate(0 0)">
        <path id="Path_330" data-name="Path 330" d="M2132.532,1297.877a15.792,15.792,0,0,1-1.823-.105.987.987,0,1,1,.229-1.961,12.245,12.245,0,0,0,6.233-.816l.884-.425a.987.987,0,0,1,.856,1.78l-.884.425A13,13,0,0,1,2132.532,1297.877Zm-9.037-2.913a.964.964,0,0,1-.426-.1l-7.118-3.421a.986.986,0,1,1,.854-1.778l7.118,3.421a.987.987,0,0,1-.428,1.876Zm22.107-1.938a.988.988,0,0,1-.428-1.878l7.119-3.42a.987.987,0,1,1,.854,1.778l-7.118,3.421A.985.985,0,0,1,2145.6,1293.026Zm-36.344-4.9a.965.965,0,0,1-.426-.1l-7.118-3.421a.986.986,0,1,1,.854-1.778l7.118,3.421a.987.987,0,0,1-.428,1.876Zm50.582-1.938a.987.987,0,0,1-.428-1.876l7.119-3.421a.987.987,0,0,1,.856,1.778l-7.119,3.421A.975.975,0,0,1,2159.839,1286.184Zm-64.819-4.9a.966.966,0,0,1-.426-.1l-1-.48c-2.3-1.106-2.646-2.551-2.646-3.314s.346-2.216,2.663-3.319a1,1,0,0,1,1.332.457.971.971,0,0,1-.444,1.307l-.035.016c-.967.46-1.541,1.034-1.541,1.538s.571,1.075,1.527,1.535l1,.48a.987.987,0,0,1-.428,1.877Zm77.874-3.039a.987.987,0,0,1-.977-.852c-.066-.481-.636-1.024-1.524-1.452l-4.279-2.057a.986.986,0,1,1,.854-1.778l4.279,2.057a4.17,4.17,0,0,1,2.626,2.961.99.99,0,0,1-.844,1.113A1.066,1.066,0,0,1,2172.895,1278.24Zm-71.69-5.7a.987.987,0,0,1-.425-1.879l7.132-3.393a.987.987,0,1,1,.848,1.783l-7.131,3.393A.991.991,0,0,1,2101.2,1272.537Zm58.219-1.98a.97.97,0,0,1-.427-.1l-7.119-3.421a.987.987,0,1,1,.854-1.778l7.118,3.421a.987.987,0,0,1-.427,1.876Zm-43.955-4.806a.987.987,0,0,1-.425-1.879l7.132-3.393a.987.987,0,0,1,.848,1.783l-7.131,3.393A.991.991,0,0,1,2115.469,1265.751Zm29.717-2.037a.98.98,0,0,1-.426-.1l-7.118-3.421a.977.977,0,0,1-.22-.144,1,1,0,0,1-.25-.083,12.794,12.794,0,0,0-7.134-.69.987.987,0,1,1-.366-1.939,15.23,15.23,0,0,1,2.829-.257,13.067,13.067,0,0,1,5.527,1.108.971.971,0,0,1,.219.144.961.961,0,0,1,.249.081l7.118,3.421a.987.987,0,0,1-.428,1.876Z" transform="translate(-2090.949 -1257.083)" fill="#0323ba"/>
      </g>
    </g>
    <g id="Group_266" data-name="Group 266" transform="translate(1150.767 2261.06)">
      <path id="Path_331" data-name="Path 331" d="M2098.794,1302.182h0a1.478,1.478,0,0,0,1.795-1.072l1.511-5.986a1.478,1.478,0,0,0-1.071-1.794h0a1.479,1.479,0,0,0-1.795,1.07l-1.51,5.986A1.479,1.479,0,0,0,2098.794,1302.182Z" transform="translate(-2059.41 -1247.46)" fill="#98a7fe"/>
      <g id="Group_263" data-name="Group 263" transform="translate(3.654 46.547)">
        <path id="Path_332" data-name="Path 332" d="M2102.676,1309.308q1.28-.593,2.529-1.285l6.517-3.885.237-10.241-11.066,6.352c-11.066,6.147-15.745,10.588-25.1,2.031a4.445,4.445,0,0,0-6,6.562C2081.268,1319.336,2088.733,1315.755,2102.676,1309.308Z" transform="translate(-2068.348 -1293.897)" fill="#98a7fe"/>
      </g>
      <path id="Path_333" data-name="Path 333" d="M2069.512,1301.46a4.441,4.441,0,0,1,6.28-.282c8.623,7.887,13.286,4.726,22.625-.629a42.579,42.579,0,0,1,2.248,8.585c-12.668,5.834-19.964,8.581-30.872-1.395A4.446,4.446,0,0,1,2069.512,1301.46Z" transform="translate(-2064.694 -1246.248)" fill="#02187c" opacity="0.2"/>
      <g id="Group_264" data-name="Group 264" transform="translate(38.268 35.238)">
        <path id="Path_334" data-name="Path 334" d="M2169.651,1310.03a1.9,1.9,0,0,0-.045-.31l-.275-10.635-26.842-.136-1.144-.559a11.8,11.8,0,0,0-8.963-.016l-1.316.517-33.388-.169.127,12.745a3.174,3.174,0,0,0,1.923,2.789l29.459,14.321a11.728,11.728,0,0,0,8.952,0l30.2-14.315a2.137,2.137,0,0,0,1.317-1.894Z" transform="translate(-2097.678 -1281.939)" fill="url(#linear-gradient-9)"/>
        <path id="Path_335" data-name="Path 335" d="M2138.121,1285.206a11.806,11.806,0,0,0-8.963-.016l-29.516,14.044c-2.467,1.173-2.473,3.1-.012,4.285l29.54,14.2a11.726,11.726,0,0,0,8.952,0l29.345-14.1c2.462-1.183,2.462-3.119,0-4.3Z" transform="translate(-2097.658 -1284.314)" fill="#536dfe"/>
      </g>
      <path id="Path_336" data-name="Path 336" d="M2089.99,1442.038l5.071-2.97v-2.281l5.268-.761,11.905-6.9a4.048,4.048,0,0,0-.646-7.306h0a8.948,8.948,0,0,0-6.975.361l-9.16,4.456-11.244,4.132-1.18,5.161a6.474,6.474,0,0,0,6.462,6.106Z" transform="translate(-2062.049 -1224.404)" fill="#0323ba"/>
      <path id="Path_337" data-name="Path 337" d="M2087.83,1440.422h.5l5.071-2.97v-2.281l5.268-.76,11.9-6.9a4.017,4.017,0,0,0,1.465-5.485,4.023,4.023,0,0,1,.018,6.968l-11.905,6.9-5.268.761v2.281l-5.071,2.97h-.5a6.458,6.458,0,0,1-5.282-2.745A6.418,6.418,0,0,0,2087.83,1440.422Z" transform="translate(-2061.869 -1224.27)" fill="#042ff8"/>
      <path id="Path_338" data-name="Path 338" d="M2073.529,1430.78l5.071-2.971v-2.28l5.268-.761,11.905-6.9a4.048,4.048,0,0,0-.645-7.306h0a8.949,8.949,0,0,0-6.975.361l-9.16,4.455-11.213,4.663-1.211,4.631a6.472,6.472,0,0,0,6.462,6.1Z" transform="translate(-2065.014 -1226.432)" fill="#0323ba"/>
      <path id="Path_339" data-name="Path 339" d="M2071.369,1429.165h.5l5.071-2.97v-2.281l5.268-.76,11.9-6.9a4.017,4.017,0,0,0,1.464-5.485,4.023,4.023,0,0,1,.018,6.968l-11.905,6.9-5.268.761v2.28l-5.071,2.971h-.5a6.461,6.461,0,0,1-5.282-2.744A6.418,6.418,0,0,0,2071.369,1429.165Z" transform="translate(-2064.834 -1226.297)" fill="#042ff8"/>
      <path id="Path_340" data-name="Path 340" d="M2067.451,1434.18l-1.1-98.775a6.668,6.668,0,0,1,6.668-6.668c3.682,0,10.371,2.986,10.371,6.668l-4.809,98.775c0,3.682-1.88,5.185-5.562,5.185S2067.451,1437.862,2067.451,1434.18Z" transform="translate(-2065.054 -1241.074)" fill="#042ff8"/>
      <path id="Path_341" data-name="Path 341" d="M2081.272,1335.061l-3.867,11.7a31.562,31.562,0,0,0-1.475,12.647l.606,32.005-4,47.027c3.26-.171,4.922-1.706,4.922-5.169l4.809-98.775a3.122,3.122,0,0,0-.1-.74A2.184,2.184,0,0,0,2081.272,1335.061Z" transform="translate(-2063.939 -1240.169)" fill="#0323ba" opacity="0.5"/>
      <path id="Path_342" data-name="Path 342" d="M2090.111,1450.79c-3.681-.291-5.323-1.282-5.029-4.958l.826-56.716-10.218-28.715a31.562,31.562,0,0,1-1.763-12.611l.791-12.3c-.251-3.674,11.776-6.948,15.449-7.2a6.644,6.644,0,0,1,7.108,6.2l3.7,54.134.034.495-4.849,57.784c-.28,3.49-2.092,3.912-5.532,3.912Z" transform="translate(-2063.7 -1241.158)" fill="#042ff8"/>
      <path id="Path_343" data-name="Path 343" d="M2094.154,1446.9l4.85-57.784-.034-.495-3.705-54.134a6.644,6.644,0,0,0-6.551-6.208c-.057.172-.113.345-.168.517a67.581,67.581,0,0,0-3.4,16.478c-.51,7.762.748,15.516,1.923,23.2,3.3,21.612,5.991,43.65,2.782,65.277-.838,5.653-2.077,11.327-1.992,17.011.082.008.158.017.242.024l.521.02C2092.062,1450.809,2093.874,1450.386,2094.154,1446.9Z" transform="translate(-2061.689 -1241.157)" fill="#536dfe" opacity="0.5"/>
      <path id="Path_344" data-name="Path 344" d="M2065.9,1290.44c.914-6.32,6.821-10.452,12.438-7.417h0q.908.524,1.788,1.086c16.111,10.281,19.784,23.661,19.784,38.111l-.3,12.226,2.222,24.723a15.353,15.353,0,0,1-9.209,2.177c-.326-.013-4.082-.231-4.9-.374-9.426-1.632-18.252-2.983-21.821-10.045l1.109-32.854S2064.39,1300.9,2065.9,1290.44Z" transform="translate(-2065.219 -1249.492)" fill="#fff"/>
      <path id="Path_345" data-name="Path 345" d="M2077.849,1293.143h0a3.262,3.262,0,0,0,3.262-3.261V1274.8h-6.523v15.081A3.261,3.261,0,0,0,2077.849,1293.143Z" transform="translate(-2063.57 -1250.79)" fill="#98a7fe"/>
      <path id="Path_346" data-name="Path 346" d="M2075.272,1287.527h8.315a6.939,6.939,0,0,0,6.94-6.939l-.738-7.848.738-3.393v-5.517a4.449,4.449,0,0,0-4.45-4.449h-10.805a4.449,4.449,0,0,0-4.449,4.449v19.248A4.449,4.449,0,0,0,2075.272,1287.527Z" transform="translate(-2064.248 -1253.567)" fill="#98a7fe"/>
      <path id="Path_347" data-name="Path 347" d="M2065.388,1274.75c.028-.734.047-1.467.035-2.2a52.337,52.337,0,0,1,.143-8.55c.528-3.55,2.324-7.193,5.595-8.669a15.067,15.067,0,0,1,6.342-.873l13.119.085c1.918.013,4.028.071,5.674,1.185,3.1,2.092,1.571,6.087-.285,8.471a10.876,10.876,0,0,1-3.738,3.182c-1.423.679-3.837.111-4.758,1.553-1.271,1.987,1.135,8.327-1.637,9.1-2.144.6-1.859-1.625-2.2-2.861a1.979,1.979,0,0,0-1.6-1.593c-1.01-.045-1.681,1.061-1.868,2.056-.373,1.965.2,3.968.449,5.953s.051,4.256-1.453,5.574a5.863,5.863,0,0,1-1.881,1.027c-1.985.722-5.61,1.6-7.44.159-2.593-2.038-4.246-4.122-4.549-7.509A47.608,47.608,0,0,1,2065.388,1274.75Z" transform="translate(-2065.251 -1254.455)" fill="#042ff8"/>
      <path id="Path_348" data-name="Path 348" d="M2098.341,1356.076l-2.222-24.723.3-12.226a51.805,51.805,0,0,0-2.792-18.039l-7.2-1.913a15.486,15.486,0,0,1-1.591,18.854,10.754,10.754,0,0,1,4.858,5.017c1.422,3.487.051,7.41-1.116,10.991a67.6,67.6,0,0,0-3.4,16.478,61.442,61.442,0,0,0,.008,7.473c1.413.125,3.694.257,3.945.267A15.353,15.353,0,0,0,2098.341,1356.076Z" transform="translate(-2061.723 -1246.399)" fill="#536dfe" opacity="0.2"/>
      <path id="Path_349" data-name="Path 349" d="M2121.947,1321.462h0a1.478,1.478,0,0,0,2.09.041l4.515-4.4a1.479,1.479,0,0,0,.042-2.089h0a1.477,1.477,0,0,0-2.089-.042l-4.516,4.4A1.478,1.478,0,0,0,2121.947,1321.462Z" transform="translate(-2055.113 -1243.628)" fill="#98a7fe"/>
      <g id="Group_265" data-name="Group 265" transform="translate(19.148 47.287)">
        <path id="Path_350" data-name="Path 350" d="M2120.211,1331.478q1.411,0,2.833-.1l7.847-1.127,8.217.327a4.445,4.445,0,0,0-.443-8.878l-8.024,1.136-8.144-.33a29.473,29.473,0,0,1-29.436-17.99l-3.041-7.258a4.445,4.445,0,0,0-8.2,3.435l3.041,7.259A38.311,38.311,0,0,0,2120.211,1331.478Z" transform="translate(-2081.476 -1294.524)" fill="#98a7fe"/>
      </g>
      <path id="Path_351" data-name="Path 351" d="M2087.895,1315.039a39.191,39.191,0,0,1-3.6-6.691l-3.041-7.259a5.187,5.187,0,0,1,9.568-4.009l3.04,7.26a28.694,28.694,0,0,0,2.864,5.236Z" transform="translate(-2062.442 -1247.35)" fill="#fff"/>
    </g>
    <g id="Group_271" data-name="Group 271" transform="translate(1052.59 2349.831)">
      <g id="Group_268" data-name="Group 268" transform="translate(0 31.535)">
        <g id="Group_267" data-name="Group 267" transform="translate(0 10.208)" opacity="0.3">
          <path id="Path_352" data-name="Path 352" d="M2029.385,1366.094a13.851,13.851,0,0,0-10.516-.019l-34.633,16.477c-2.9,1.378-2.9,3.641-.013,5.029l34.66,16.659a13.766,13.766,0,0,0,10.5,0l34.433-16.549c2.888-1.388,2.888-3.658,0-5.047Z" transform="translate(-1982.06 -1365.047)" fill="#042ff8" opacity="0"/>
          <path id="Path_353" data-name="Path 353" d="M2029.164,1404.087a13.515,13.515,0,0,1-10.282,0l-34.509-16.586c-2.818-1.355-2.118-3.892.706-5.236,0,0,33.8-16.079,33.825-16.079a13.6,13.6,0,0,1,10.3.024l34.283,16.476c2.818,1.355,2.126,3.9-.69,5.256C2062.788,1387.938,2029.184,1404.087,2029.164,1404.087Z" transform="translate(-1981.967 -1365.024)" fill="#042ff8" opacity="0.024"/>
          <path id="Path_354" data-name="Path 354" d="M2028.952,1403.934a13.262,13.262,0,0,1-10.062-.009l-34.358-16.514c-2.747-1.321-1.355-4.133,1.4-5.443.006,0,32.977-15.683,33.017-15.683a13.341,13.341,0,0,1,10.076.028l34.133,16.4c2.748,1.321,1.367,4.146-1.381,5.465C2061.77,1388.185,2028.992,1403.934,2028.952,1403.934Z" transform="translate(-1981.883 -1365)" fill="#042ff8" opacity="0.049"/>
          <path id="Path_355" data-name="Path 355" d="M2028.75,1403.782a13.016,13.016,0,0,1-9.842-.014l-34.207-16.44c-2.678-1.288-.591-4.375,2.094-5.652.008,0,32.145-15.285,32.207-15.285a13.091,13.091,0,0,1,9.856.033l33.983,16.332c2.678,1.287.606,4.388-2.071,5.675C2060.76,1388.434,2028.81,1403.782,2028.75,1403.782Z" transform="translate(-1981.808 -1364.976)" fill="#042ff8" opacity="0.073"/>
          <path id="Path_356" data-name="Path 356" d="M2028.554,1403.629a12.759,12.759,0,0,1-9.622-.019l-34.056-16.368c-2.607-1.253.174-4.614,2.786-5.858.01,0,31.317-14.889,31.4-14.889a12.848,12.848,0,0,1,9.637.038l33.834,16.261c2.606,1.252-.156,4.63-2.763,5.883C2059.758,1388.682,2028.634,1403.629,2028.554,1403.629Z" transform="translate(-1981.741 -1364.952)" fill="#042ff8" opacity="0.098"/>
          <path id="Path_357" data-name="Path 357" d="M2028.364,1403.477a12.513,12.513,0,0,1-9.4-.024l-33.905-16.3c-2.536-1.218.937-4.855,3.48-6.065.013-.006,30.487-14.492,30.589-14.492a12.592,12.592,0,0,1,9.417.042l33.684,16.189c2.536,1.219-.917,4.873-3.453,6.092C2058.761,1388.929,2028.463,1403.477,2028.364,1403.477Z" transform="translate(-1981.679 -1364.928)" fill="#042ff8" opacity="0.122"/>
          <path id="Path_358" data-name="Path 358" d="M2028.179,1403.325a12.26,12.26,0,0,1-9.181-.028l-33.754-16.223c-2.467-1.185,1.7-5.1,4.173-6.272.016-.007,29.659-14.1,29.781-14.1a12.344,12.344,0,0,1,9.2.047l33.536,16.117c2.465,1.185-1.678,5.116-4.143,6.3C2057.769,1389.177,2028.3,1403.325,2028.179,1403.325Z" transform="translate(-1981.622 -1364.905)" fill="#042ff8" opacity="0.146"/>
          <path id="Path_359" data-name="Path 359" d="M2028,1403.173a12.013,12.013,0,0,1-8.961-.034l-33.6-16.151c-2.4-1.151,2.465-5.338,4.867-6.48.019-.008,28.829-13.7,28.971-13.7a12.1,12.1,0,0,1,8.977.052l33.386,16.045c2.4,1.152-2.438,5.358-4.834,6.51C2056.781,1389.425,2028.137,1403.173,2028,1403.173Z" transform="translate(-1981.568 -1364.881)" fill="#042ff8" opacity="0.171"/>
          <path id="Path_360" data-name="Path 360" d="M2027.818,1403.021a11.77,11.77,0,0,1-8.741-.039l-33.452-16.078c-2.325-1.118,3.229-5.58,5.56-6.688.022-.009,28-13.3,28.164-13.3a11.842,11.842,0,0,1,8.758.055l33.235,15.973c2.325,1.118-3.2,5.6-5.524,6.719C2055.8,1389.672,2027.979,1403.021,2027.818,1403.021Z" transform="translate(-1981.518 -1364.857)" fill="#042ff8" opacity="0.195"/>
          <path id="Path_361" data-name="Path 361" d="M2027.641,1402.868a11.508,11.508,0,0,1-8.519-.045l-33.3-16c-2.255-1.083,3.992-5.819,6.253-6.894.024-.01,27.172-12.9,27.354-12.9a11.6,11.6,0,0,1,8.537.06l33.086,15.9c2.255,1.083-3.96,5.843-6.214,6.926C2054.812,1389.92,2027.822,1402.868,2027.641,1402.868Z" transform="translate(-1981.469 -1364.833)" fill="#042ff8" opacity="0.22"/>
          <path id="Path_362" data-name="Path 362" d="M2027.467,1402.716a11.26,11.26,0,0,1-8.3-.05l-33.151-15.932c-2.185-1.05,4.757-6.061,6.946-7.1.027-.012,26.344-12.506,26.546-12.506a11.339,11.339,0,0,1,8.318.065l32.938,15.83c2.183,1.049-4.722,6.086-6.906,7.135C2053.83,1390.168,2027.668,1402.716,2027.467,1402.716Z" transform="translate(-1981.423 -1364.809)" fill="#042ff8" opacity="0.244"/>
          <path id="Path_363" data-name="Path 363" d="M2027.293,1402.564a11.014,11.014,0,0,1-8.079-.053l-33-15.861c-2.114-1.016,5.521-6.3,7.64-7.31.03-.013,25.514-12.109,25.736-12.109a11.1,11.1,0,0,1,8.1.07l32.787,15.758c2.114,1.015-5.483,6.329-7.6,7.344C2052.85,1390.415,2027.514,1402.564,2027.293,1402.564Z" transform="translate(-1981.377 -1364.786)" fill="#042ff8" opacity="0.268"/>
          <path id="Path_364" data-name="Path 364" d="M2027.122,1402.411a10.766,10.766,0,0,1-7.86-.059l-32.849-15.788c-2.044-.982,6.285-6.543,8.333-7.516.033-.014,24.686-11.713,24.928-11.713a10.856,10.856,0,0,1,7.879.074l32.637,15.686c2.043.982-6.244,6.571-8.287,7.553C2051.871,1390.663,2027.361,1402.411,2027.122,1402.411Z" transform="translate(-1981.333 -1364.762)" fill="#042ff8" opacity="0.293"/>
          <path id="Path_365" data-name="Path 365" d="M2026.95,1402.259a10.508,10.508,0,0,1-7.639-.064l-32.7-15.715c-1.973-.949,7.049-6.784,9.027-7.725.035-.014,23.856-11.315,24.118-11.315a10.6,10.6,0,0,1,7.659.079l32.488,15.614c1.973.949-7,6.814-8.977,7.762C2050.894,1390.911,2027.211,1402.259,2026.95,1402.259Z" transform="translate(-1981.29 -1364.738)" fill="#042ff8" opacity="0.317"/>
          <path id="Path_366" data-name="Path 366" d="M2026.78,1402.108a10.273,10.273,0,0,1-7.419-.07l-32.547-15.643c-1.9-.913,7.813-7.024,9.719-7.932.038-.017,23.028-10.917,23.31-10.917a10.355,10.355,0,0,1,7.439.083l32.339,15.542c1.9.915-7.766,7.057-9.669,7.971C2049.915,1391.158,2027.06,1402.108,2026.78,1402.108Z" transform="translate(-1981.248 -1364.714)" fill="#042ff8" opacity="0.341"/>
          <path id="Path_367" data-name="Path 367" d="M2026.609,1401.954a10.017,10.017,0,0,1-7.2-.073l-32.4-15.569c-1.833-.88,8.577-7.266,10.413-8.139.04-.018,22.2-10.521,22.5-10.521a10.111,10.111,0,0,1,7.219.087l32.189,15.47c1.832.88-8.526,7.3-10.359,8.181C2048.939,1391.406,2026.91,1401.954,2026.609,1401.954Z" transform="translate(-1981.206 -1364.691)" fill="#042ff8" opacity="0.366"/>
          <path id="Path_368" data-name="Path 368" d="M2026.441,1401.8a9.772,9.772,0,0,1-6.978-.079l-32.247-15.5c-1.761-.846,9.342-7.507,11.107-8.347.044-.018,21.37-10.123,21.693-10.123a9.86,9.86,0,0,1,7,.092l32.039,15.4c1.761.846-9.288,7.541-11.048,8.387C2047.963,1391.654,2026.761,1401.8,2026.441,1401.8Z" transform="translate(-1981.165 -1364.667)" fill="#042ff8" opacity="0.39"/>
          <path id="Path_369" data-name="Path 369" d="M2026.272,1401.65a9.529,9.529,0,0,1-6.758-.084l-32.095-15.425c-1.691-.812,10.105-7.748,11.8-8.554.046-.02,20.54-9.727,20.884-9.727a9.616,9.616,0,0,1,6.779.1l31.891,15.328c1.691.812-10.049,7.784-11.739,8.6C2046.987,1391.9,2026.613,1401.65,2026.272,1401.65Z" transform="translate(-1981.124 -1364.643)" fill="#042ff8" opacity="0.415"/>
          <path id="Path_370" data-name="Path 370" d="M2026.1,1401.5a9.284,9.284,0,0,1-6.538-.088l-31.945-15.352c-1.619-.779,10.87-7.99,12.494-8.761.05-.021,19.712-9.329,20.075-9.329a9.363,9.363,0,0,1,6.559.1l31.742,15.255c1.62.779-10.81,8.027-12.43,8.806C2046.012,1392.149,2026.464,1401.5,2026.1,1401.5Z" transform="translate(-1981.084 -1364.619)" fill="#042ff8" opacity="0.439"/>
          <path id="Path_371" data-name="Path 371" d="M2025.936,1401.346a9.036,9.036,0,0,1-6.317-.093l-31.794-15.28c-1.55-.745,11.634-8.229,13.188-8.969.051-.021,18.882-8.931,19.266-8.931a9.12,9.12,0,0,1,6.34.105l31.592,15.183c1.55.745-11.571,8.27-13.121,9.015C2045.037,1392.4,2026.315,1401.346,2025.936,1401.346Z" transform="translate(-1981.044 -1364.596)" fill="#042ff8" opacity="0.463"/>
          <path id="Path_372" data-name="Path 372" d="M2025.769,1401.193a8.791,8.791,0,0,1-6.1-.1l-31.643-15.208c-1.479-.711,12.4-8.47,13.881-9.176.054-.024,18.054-8.535,18.457-8.535a8.885,8.885,0,0,1,6.12.11l31.442,15.112c1.479.712-12.332,8.512-13.811,9.224C2044.063,1392.644,2026.168,1401.193,2025.769,1401.193Z" transform="translate(-1981.004 -1364.572)" fill="#042ff8" opacity="0.488"/>
          <path id="Path_373" data-name="Path 373" d="M2025.6,1401.041a8.546,8.546,0,0,1-5.877-.1l-31.49-15.135c-1.409-.677,13.161-8.712,14.573-9.383.057-.025,17.224-8.138,17.648-8.138a8.639,8.639,0,0,1,5.9.115l31.292,15.04c1.409.677-13.094,8.755-14.5,9.433C2043.089,1392.893,2026.021,1401.041,2025.6,1401.041Z" transform="translate(-1980.965 -1364.548)" fill="#042ff8" opacity="0.512"/>
          <path id="Path_374" data-name="Path 374" d="M2025.434,1400.888a8.309,8.309,0,0,1-5.658-.107l-31.341-15.063c-1.338-.643,13.926-8.952,15.267-9.591.06-.025,16.4-7.741,16.839-7.741a8.4,8.4,0,0,1,5.681.119l31.142,14.968c1.34.644-13.854,9-15.192,9.642C2042.114,1393.141,2025.874,1400.888,2025.434,1400.888Z" transform="translate(-1980.926 -1364.524)" fill="#042ff8" opacity="0.537"/>
          <path id="Path_375" data-name="Path 375" d="M2025.267,1400.736a8.063,8.063,0,0,1-5.437-.112l-31.189-14.99c-1.268-.61,14.69-9.193,15.961-9.8.063-.027,15.566-7.344,16.031-7.344a8.16,8.16,0,0,1,5.46.124l30.994,14.9c1.268.609-14.616,9.241-15.884,9.849C2041.14,1393.388,2025.727,1400.736,2025.267,1400.736Z" transform="translate(-1980.887 -1364.5)" fill="#042ff8" opacity="0.561"/>
          <path id="Path_376" data-name="Path 376" d="M2025.1,1400.584a7.818,7.818,0,0,1-5.216-.117l-31.04-14.918c-1.2-.575,15.454-9.434,16.655-10.005.064-.028,14.736-6.948,15.221-6.948a7.915,7.915,0,0,1,5.241.129l30.844,14.825c1.2.576-15.376,9.482-16.574,10.058C2040.167,1393.636,2025.579,1400.584,2025.1,1400.584Z" transform="translate(-1980.849 -1364.477)" fill="#042ff8" opacity="0.585"/>
          <path id="Path_377" data-name="Path 377" d="M2024.933,1400.432a7.583,7.583,0,0,1-5-.123l-30.889-14.845c-1.127-.543,16.217-9.676,17.348-10.213.067-.03,13.908-6.551,14.413-6.551a7.683,7.683,0,0,1,5.021.133l30.694,14.753c1.127.542-16.137,9.725-17.264,10.267C2039.194,1393.884,2025.434,1400.432,2024.933,1400.432Z" transform="translate(-1980.81 -1364.453)" fill="#042ff8" opacity="0.61"/>
          <path id="Path_378" data-name="Path 378" d="M2024.768,1400.28a7.352,7.352,0,0,1-4.776-.127l-30.738-14.773c-1.056-.508,16.982-9.917,18.041-10.421.071-.03,13.079-6.152,13.6-6.152a7.442,7.442,0,0,1,4.8.137l30.545,14.681c1.058.509-16.9,9.969-17.955,10.476C2038.22,1394.131,2025.287,1400.28,2024.768,1400.28Z" transform="translate(-1980.772 -1364.429)" fill="#042ff8" opacity="0.634"/>
          <path id="Path_379" data-name="Path 379" d="M2024.6,1400.128a7.1,7.1,0,0,1-4.555-.132l-30.586-14.7c-.987-.473,17.746-10.157,18.735-10.627.073-.032,12.25-5.755,12.795-5.755a7.2,7.2,0,0,1,4.581.142l30.4,14.609c.986.474-17.66,10.212-18.646,10.685C2037.247,1394.38,2025.141,1400.128,2024.6,1400.128Z" transform="translate(-1980.734 -1364.406)" fill="#042ff8" opacity="0.659"/>
          <path id="Path_380" data-name="Path 380" d="M2024.435,1399.989a6.877,6.877,0,0,1-4.336-.137l-30.435-14.628c-.916-.44,18.509-10.4,19.427-10.836.077-.032,11.493-5.129,11.987-5.358a5.826,5.826,0,0,1,4.362.146l30.247,14.537c.916.44-18.421,10.454-19.336,10.894C2036.274,1394.64,2024.995,1399.989,2024.435,1399.989Z" transform="translate(-1980.696 -1364.395)" fill="#042ff8" opacity="0.683"/>
          <path id="Path_381" data-name="Path 381" d="M2024.269,1399.836a6.651,6.651,0,0,1-4.115-.142l-30.285-14.556c-.845-.406,19.274-10.639,20.121-11.042.078-.033,10.66-4.732,11.177-4.961a5.633,5.633,0,0,1,4.142.151l30.1,14.466c.845.406-19.181,10.7-20.027,11.1C2035.3,1394.887,2024.848,1399.836,2024.269,1399.836Z" transform="translate(-1980.658 -1364.371)" fill="#042ff8" opacity="0.707"/>
          <path id="Path_382" data-name="Path 382" d="M2024.1,1399.682a6.413,6.413,0,0,1-3.9-.146l-30.134-14.483c-.775-.373,20.038-10.881,20.815-11.25.08-.034,9.827-4.339,10.369-4.565a5.445,5.445,0,0,1,3.921.156l29.947,14.394c.775.372-19.942,10.939-20.717,11.312C2034.328,1395.134,2024.7,1399.682,2024.1,1399.682Z" transform="translate(-1980.62 -1364.346)" fill="#042ff8" opacity="0.732"/>
          <path id="Path_383" data-name="Path 383" d="M2023.937,1399.529a6.194,6.194,0,0,1-3.675-.151l-29.982-14.411c-.7-.339,20.8-11.121,21.508-11.458.084-.035,8.994-3.945,9.56-4.166a5.252,5.252,0,0,1,3.7.161l29.8,14.321c.7.339-20.7,11.182-21.407,11.519C2033.356,1395.381,2024.557,1399.529,2023.937,1399.529Z" transform="translate(-1980.582 -1364.322)" fill="#042ff8" opacity="0.756"/>
          <path id="Path_384" data-name="Path 384" d="M2023.771,1399.376a5.943,5.943,0,0,1-3.453-.157l-29.832-14.338c-.634-.3,21.566-11.362,22.2-11.664.086-.036,8.158-3.554,8.751-3.769a5.076,5.076,0,0,1,3.482.164l29.648,14.25c.634.3-21.464,11.424-22.1,11.729C2032.383,1395.628,2024.411,1399.376,2023.771,1399.376Z" transform="translate(-1980.544 -1364.297)" fill="#042ff8" opacity="0.78"/>
          <path id="Path_385" data-name="Path 385" d="M2023.606,1399.224a5.755,5.755,0,0,1-3.234-.162l-29.681-14.266c-.563-.271,22.329-11.6,22.895-11.872.09-.038,7.324-3.166,7.942-3.373a4.913,4.913,0,0,1,3.263.169l29.5,14.178c.563.271-22.225,11.667-22.789,11.938C2031.411,1395.875,2024.266,1399.224,2023.606,1399.224Z" transform="translate(-1980.507 -1364.273)" fill="#042ff8" opacity="0.805"/>
          <path id="Path_386" data-name="Path 386" d="M2023.439,1399.071a5.542,5.542,0,0,1-3.013-.167l-29.53-14.193c-.493-.237,23.094-11.844,23.589-12.079.092-.04,6.488-2.78,7.133-2.976a4.746,4.746,0,0,1,3.042.175l29.35,14.1c.493.237-22.987,11.91-23.48,12.147C2030.438,1396.122,2024.12,1399.071,2023.439,1399.071Z" transform="translate(-1980.469 -1364.248)" fill="#042ff8" opacity="0.829"/>
          <path id="Path_387" data-name="Path 387" d="M2023.275,1398.918a5.324,5.324,0,0,1-2.793-.172l-29.379-14.12c-.422-.2,23.857-12.085,24.281-12.286.094-.04,5.653-2.4,6.324-2.578a4.591,4.591,0,0,1,2.823.179l29.2,14.034c.422.2-23.747,12.152-24.169,12.355C2029.466,1396.369,2023.974,1398.918,2023.275,1398.918Z" transform="translate(-1980.432 -1364.224)" fill="#042ff8" opacity="0.854"/>
          <path id="Path_388" data-name="Path 388" d="M2023.109,1398.765a5.139,5.139,0,0,1-2.573-.177l-29.228-14.047c-.352-.17,24.621-12.327,24.975-12.494.1-.042,4.816-2.017,5.515-2.181a4.454,4.454,0,0,1,2.6.183l29.05,13.962c.353.169-24.508,12.395-24.859,12.563C2028.494,1396.616,2023.83,1398.765,2023.109,1398.765Z" transform="translate(-1980.395 -1364.2)" fill="#042ff8" opacity="0.878"/>
          <path id="Path_389" data-name="Path 389" d="M2022.944,1398.612a4.956,4.956,0,0,1-2.353-.182l-29.077-13.974c-.282-.136,25.386-12.567,25.668-12.7.1-.044,3.979-1.643,4.708-1.784a4.331,4.331,0,0,1,2.383.188l28.9,13.89c.282.136-25.27,12.637-25.551,12.772A30.978,30.978,0,0,1,2022.944,1398.612Z" transform="translate(-1980.357 -1364.176)" fill="#042ff8" opacity="0.902"/>
          <path id="Path_390" data-name="Path 390" d="M2022.778,1398.46a4.807,4.807,0,0,1-2.132-.187l-28.926-13.9c-.211-.1,26.149-12.808,26.362-12.908a37.1,37.1,0,0,1,3.9-1.388,4.256,4.256,0,0,1,2.163.192l28.752,13.818c.211.1-26.03,12.88-26.241,12.981A21.261,21.261,0,0,1,2022.778,1398.46Z" transform="translate(-1980.32 -1364.152)" fill="#042ff8" opacity="0.927"/>
          <path id="Path_391" data-name="Path 391" d="M2022.613,1398.308a4.665,4.665,0,0,1-1.913-.191l-28.775-13.83c-.14-.067,26.913-13.049,27.054-13.116a20.314,20.314,0,0,1,3.09-.99,4.244,4.244,0,0,1,1.944.2l28.6,13.746c.141.068-26.791,13.123-26.932,13.19A13.618,13.618,0,0,1,2022.613,1398.308Z" transform="translate(-1980.283 -1364.128)" fill="#042ff8" opacity="0.951"/>
          <path id="Path_392" data-name="Path 392" d="M2022.447,1398.156a4.529,4.529,0,0,1-1.691-.2l-28.625-13.757c-.071-.034,27.677-13.291,27.748-13.324a10.017,10.017,0,0,1,2.28-.594,4.315,4.315,0,0,1,1.724.2l28.452,13.674c.071.034-27.553,13.366-27.622,13.4A7.979,7.979,0,0,1,2022.447,1398.156Z" transform="translate(-1980.246 -1364.105)" fill="#042ff8" opacity="0.976"/>
          <path id="Path_393" data-name="Path 393" d="M2022.283,1398.007a4.438,4.438,0,0,1-1.472-.2l-28.474-13.685,28.441-13.531a5.606,5.606,0,0,1,2.976.01l28.3,13.6-28.312,13.608A4.49,4.49,0,0,1,2022.283,1398.007Z" transform="translate(-1980.208 -1364.084)" fill="#042ff8"/>
        </g>
        <path id="Path_394" data-name="Path 394" d="M2058.061,1381.423a1.76,1.76,0,0,0-.044-.3l-.268-10.351-26.121-.132-1.113-.544a11.479,11.479,0,0,0-8.722-.015l-1.281.5-32.491-.164.124,12.4a3.091,3.091,0,0,0,1.872,2.714l28.669,13.936a11.422,11.422,0,0,0,8.71,0l29.389-13.931a2.078,2.078,0,0,0,1.282-1.842Z" transform="translate(-1980.986 -1354.087)" fill="url(#linear-gradient-9)"/>
        <path id="Path_395" data-name="Path 395" d="M2027.377,1357.266a11.489,11.489,0,0,0-8.722-.015l-28.724,13.666c-2.4,1.142-2.406,3.019-.01,4.171l28.747,13.816a11.422,11.422,0,0,0,8.71,0l28.557-13.725c2.4-1.152,2.4-3.035,0-4.187Z" transform="translate(-1980.967 -1356.398)" fill="#042ff8"/>
      </g>
      <g id="Group_269" data-name="Group 269" transform="translate(6.938 16.152)">
        <path id="Path_396" data-name="Path 396" d="M2057.979,1368.388a1.627,1.627,0,0,0-.044-.3l-.267-10.351-26.122-.132-1.113-.544a11.485,11.485,0,0,0-8.722-.015l-1.281.5-32.491-.164.125,12.4a3.089,3.089,0,0,0,1.872,2.714l28.668,13.936a11.42,11.42,0,0,0,8.71,0l29.389-13.931a2.078,2.078,0,0,0,1.281-1.842Z" transform="translate(-1987.939 -1341.052)" fill="url(#linear-gradient-11)"/>
        <path id="Path_397" data-name="Path 397" d="M2027.295,1344.23a11.487,11.487,0,0,0-8.721-.015l-28.724,13.666c-2.4,1.142-2.407,3.019-.012,4.171l28.747,13.816a11.421,11.421,0,0,0,8.71,0l28.557-13.725c2.4-1.152,2.4-3.035,0-4.187Z" transform="translate(-1987.92 -1343.363)" fill="#f6f8ff"/>
      </g>
      <g id="Group_270" data-name="Group 270" transform="translate(6.938 0)">
        <path id="Path_398" data-name="Path 398" d="M2057.979,1354.7a1.657,1.657,0,0,0-.044-.3l-.267-10.351-26.122-.132-1.113-.544a11.49,11.49,0,0,0-8.722-.015l-1.281.5-32.491-.165.125,12.4a3.087,3.087,0,0,0,1.872,2.714l28.668,13.936a11.411,11.411,0,0,0,8.71,0l29.389-13.932a2.078,2.078,0,0,0,1.281-1.842Z" transform="translate(-1987.939 -1327.365)" fill="url(#linear-gradient-12)"/>
        <path id="Path_399" data-name="Path 399" d="M2027.295,1330.545a11.482,11.482,0,0,0-8.721-.017l-28.724,13.666c-2.4,1.142-2.407,3.019-.012,4.171l28.747,13.816a11.421,11.421,0,0,0,8.71,0l28.557-13.725c2.4-1.151,2.4-3.035,0-4.186Z" transform="translate(-1987.92 -1329.676)" fill="#a9b6ff"/>
      </g>
    </g>
    <path id="Path_400" data-name="Path 400" d="M3235.756,1527.662l20.222,11.748,22.186-12.743-20.222-11.748Z" transform="translate(-1975.57 824.566)" fill="#375fa1"/>
    <path id="Path_401" data-name="Path 401" d="M3213.57,1540.4l10.111,5.874,10.111,5.874,22.186-12.743-20.222-11.748Z" transform="translate(-1975.57 824.566)" fill="#bd081c"/>
    <path id="Path_402" data-name="Path 402" d="M3302.313,1489.434l-22.186,12.742,20.222,11.748,22.186-12.743Z" transform="translate(-1975.57 824.566)" fill="red"/>
    <path id="Path_403" data-name="Path 403" d="M3257.941,1514.919l20.222,11.748,22.186-12.742-20.222-11.748Z" transform="translate(-1975.57 824.566)" fill="#25d366"/>
    <g id="Group_273" data-name="Group 273" transform="translate(-2328.877 2700.769) rotate(-31)">
      <path id="Path_404" data-name="Path 404" d="M3272.424,1555.709a.916.916,0,0,0-.586.142.323.323,0,0,0-.114.35,2.152,2.152,0,0,0,.241.54l.852,1.477h1.993l.95,2.132h-1.711l3.1,5.368h-2.2l-3.1-5.368h-1.8l-1.231-2.132h1.8l-.974-1.689a2.422,2.422,0,0,1-.448-2.073q.324-.738,1.566-.738a12.752,12.752,0,0,1,1.695.094l1.1,1.9Z"/>
    </g>
    <g id="Group_274" data-name="Group 274" transform="translate(-2286.267 2045.89) rotate(-21)">
      <path id="Path_405" data-name="Path 405" d="M3249.63,1555.991a10.834,10.834,0,0,1,3.7,3.68,4.045,4.045,0,0,1,.578,3.68,2.755,2.755,0,0,1-2.824,1.523,7.4,7.4,0,0,1-2.849-.633l-2.346.727-.807-2.7a10.091,10.091,0,0,1-2.2-2.6,4.111,4.111,0,0,1-.6-3.68,2.706,2.706,0,0,1,2.8-1.524A8.583,8.583,0,0,1,3249.63,1555.991Zm.949,8.016a2.267,2.267,0,0,0,2.332-1.278,3.375,3.375,0,0,0-.476-3.058,8.749,8.749,0,0,0-3.073-3.048,7.109,7.109,0,0,0-3.777-1.265,2.261,2.261,0,0,0-2.328,1.265,3.375,3.375,0,0,0,.482,3.048,8.484,8.484,0,0,0,2.006,2.3l.189.164.474,1.593,1.4-.422.217.093A6.255,6.255,0,0,0,3250.579,1564.007Zm.486-3.258a1.623,1.623,0,0,1,.352.163,1.365,1.365,0,0,1,.271.634.445.445,0,0,1-.139.387.6.6,0,0,1-.376.221,4,4,0,0,1-1.76-.328,12.28,12.28,0,0,1-3.34-1.969,4.926,4.926,0,0,1-1.309-1.335,1.392,1.392,0,0,1-.191-1.1.288.288,0,0,1,.27-.141h.258a.552.552,0,0,1,.4.211l.954.962a.424.424,0,0,1,.158.235.785.785,0,0,1-.025.362c-.034.1-.055.161-.063.176s.034.07.119.164a6.732,6.732,0,0,0,1.243.915,12.544,12.544,0,0,0,1.408.632c.161.062.25.055.267-.024a3.9,3.9,0,0,0,.125-.515c.008-.093.088-.118.241-.07S3250.46,1560.514,3251.065,1560.749Z" fill="#fff"/>
    </g>
    <g id="Group_275" data-name="Group 275" transform="matrix(0.819, -0.574, 0.574, 0.819, -2336.395, 2977.493)">
      <path id="Path_406" data-name="Path 406" d="M3294.9,1553.858a7.216,7.216,0,0,1,3.587,1.079,7.573,7.573,0,0,1,2.865,2.789,7.716,7.716,0,0,1,.724,1.639,4.483,4.483,0,0,1,.207,1.477,1.4,1.4,0,0,1-.513,1.078,2.1,2.1,0,0,1-1.375.4,3.112,3.112,0,0,1-1.067-.221,3.216,3.216,0,0,1-1.038-.621c.062.186.149.453.261.8s.186.567.222.668.085.269.149.5a2.42,2.42,0,0,1,.1.5c.005.1.01.246.017.435a3.812,3.812,0,0,1-.017.538c-.018.172-.044.376-.082.61-.029.032-.046.046-.054.046a.6.6,0,0,1-.123-.07c-.5-.75-.783-1.194-.866-1.335a10.566,10.566,0,0,1-.679-1.442q-.313-.809-.7-2.028t-.463-1.429a4.91,4.91,0,0,1-.924-1.2q-.651-1.125,0-1.5a1.114,1.114,0,0,1,1.247.21,2.356,2.356,0,0,1,.616.7,4.994,4.994,0,0,1,.46,1.324,5.021,5.021,0,0,0,.46,1.326,2.061,2.061,0,0,0,.743.738,1.8,1.8,0,0,0,.93.292.851.851,0,0,0,.792-.374,1.31,1.31,0,0,0,.113-.961,6.565,6.565,0,0,0-.342-1.16,8.113,8.113,0,0,0-.524-1.091,5.132,5.132,0,0,0-1.857-1.9,4.656,4.656,0,0,0-2.4-.68,1.771,1.771,0,0,0-1.815.914,2.563,2.563,0,0,0,.4,2.319,4.459,4.459,0,0,0,.879,1.055c.379.345.572.524.581.54a1.955,1.955,0,0,1,.186.5c.051.211.03.316-.064.316a2.744,2.744,0,0,1-1.416-.726,6.381,6.381,0,0,1-1.572-1.853q-1.084-1.875-.319-3.046A2.94,2.94,0,0,1,3294.9,1553.858Z"/>
    </g>
    <g id="Group_276" data-name="Group 276" transform="matrix(0.883, -0.469, 0.469, 0.883, -2343.853, 2510.817)">
      <path id="Path_407" data-name="Path 407" d="M3331.426,1556.623q.234.283.535.7t.562.832q.261.413.475.763c.144.233.26.43.351.586l.122.21a18.586,18.586,0,0,1,1.541,3.118,1.034,1.034,0,0,1-.016.7.74.74,0,0,1-.482.422,7.824,7.824,0,0,1-1.586.176q-1.21.058-2.227.083h-1.031a30.342,30.342,0,0,1-5.141-.259,3.342,3.342,0,0,1-1.8-1.124,13.081,13.081,0,0,1-.885-1.231q-.512-.786-.847-1.325l-.324-.562a18.353,18.353,0,0,1-1.529-3.094,1.064,1.064,0,0,1,0-.726.751.751,0,0,1,.484-.422,8.039,8.039,0,0,1,1.586-.176c.8-.039,1.547-.066,2.225-.082h1.032a30.61,30.61,0,0,1,5.141.258,3.232,3.232,0,0,1,.97.422A3.716,3.716,0,0,1,3331.426,1556.623Zm-4.557,5.017,2.242-1.923-4.448-1.9Z"/>
    </g>
  </g>
</svg>
